  0
SECTION
  2
HEADER
  9
$ACADVER
  1
AC1006
  9
$EXTMIN
 10
0.000000
 20
0.000000
 30
0.000000
  9
$EXTMAX
 10
702.000000
 20
865.000000
 30
0.000000
  0
ENDSEC
  0
SECTION
  2
ENTITIES
  0
POLYLINE
  8
0
 66
1
 70
1
  0
VERTEX
  8
0
 10
395.500000
 20
847.369199
 42
0.013021
  0
VERTEX
  8
0
 10
387.742549
 20
846.319594
 42
0.010830
  0
VERTEX
  8
0
 10
379.555372
 20
844.811286
 42
0.011027
  0
VERTEX
  8
0
 10
371.654691
 20
842.995552
 42
0.015992
  0
VERTEX
  8
0
 10
364.776443
 20
841.018180
 42
0.029433
  0
VERTEX
  8
0
 10
355.542258
 20
837.428465
 42
0.014874
  0
VERTEX
  8
0
 10
344.347071
 20
831.890785
 42
0.014655
  0
VERTEX
  8
0
 10
333.773212
 20
825.858897
 42
0.039324
  0
VERTEX
  8
0
 10
326.758294
 20
820.783584
 42
-0.011020
  0
VERTEX
  8
0
 10
322.427461
 20
817.260624
 42
-0.044193
  0
VERTEX
  8
0
 10
319.559577
 20
815.412160
 42
-0.056676
  0
VERTEX
  8
0
 10
316.779351
 20
814.330716
 42
-0.026677
  0
VERTEX
  8
0
 10
313.000000
 20
813.547290
 42
0.025106
  0
VERTEX
  8
0
 10
307.699887
 20
812.465966
 42
0.022050
  0
VERTEX
  8
0
 10
302.295745
 20
810.820577
 42
0.019123
  0
VERTEX
  8
0
 10
296.378920
 20
808.471815
 42
0.011309
  0
VERTEX
  8
0
 10
289.500000
 20
805.243901
 42
0.017077
  0
VERTEX
  8
0
 10
281.227361
 20
800.772638
 42
0.023891
  0
VERTEX
  8
0
 10
274.186963
 20
796.185768
 42
0.025816
  0
VERTEX
  8
0
 10
268.061270
 20
791.264226
 42
0.026708
  0
VERTEX
  8
0
 10
262.548211
 20
785.790145
 42
0.017798
  0
VERTEX
  8
0
 10
256.935250
 20
779.125534
 42
0.033207
  0
VERTEX
  8
0
 10
252.963960
 20
773.295355
 42
0.035465
  0
VERTEX
  8
0
 10
249.968161
 20
767.259051
 42
0.023802
  0
VERTEX
  8
0
 10
247.382497
 20
760.000000
 42
0.012205
  0
VERTEX
  8
0
 10
245.794013
 20
754.264467
 42
0.030798
  0
VERTEX
  8
0
 10
245.000967
 20
750.007848
 42
0.026742
  0
VERTEX
  8
0
 10
244.678515
 20
745.352144
 42
0.007344
  0
VERTEX
  8
0
 10
244.671237
 20
738.000000
 42
0.015177
  0
VERTEX
  8
0
 10
245.101043
 20
728.249080
 42
0.013925
  0
VERTEX
  8
0
 10
246.126339
 20
718.256706
 42
0.014504
  0
VERTEX
  8
0
 10
247.616178
 20
708.971912
 42
0.025569
  0
VERTEX
  8
0
 10
249.456239
 20
701.427846
 42
0.055377
  0
VERTEX
  8
0
 10
251.559880
 20
696.466202
 42
0.008527
  0
VERTEX
  8
0
 10
256.966797
 20
687.210534
 42
0.010229
  0
VERTEX
  8
0
 10
262.971076
 20
677.764430
 42
0.021972
  0
VERTEX
  8
0
 10
268.058158
 20
670.796212
 42
0.028098
  0
VERTEX
  8
0
 10
269.814523
 20
668.836459
 42
0.006031
  0
VERTEX
  8
0
 10
273.085916
 20
665.652648
 42
0.006282
  0
VERTEX
  8
0
 10
276.971131
 20
662.053426
 42
0.005954
  0
VERTEX
  8
0
 10
281.014786
 20
658.487270
 42
-0.008850
  0
VERTEX
  8
0
 10
284.969388
 20
654.958728
 42
-0.010391
  0
VERTEX
  8
0
 10
288.586276
 20
651.472506
 42
-0.009408
  0
VERTEX
  8
0
 10
291.515371
 20
648.416492
 42
-0.061306
  0
VERTEX
  8
0
 10
292.754800
 20
646.691057
 42
-0.095701
  0
VERTEX
  8
0
 10
293.757236
 20
643.557789
 42
-0.017769
  0
VERTEX
  8
0
 10
294.262718
 20
637.502769
 42
-0.008956
  0
VERTEX
  8
0
 10
294.575932
 20
627.010325
 42
-0.001076
  0
VERTEX
  8
0
 10
294.802477
 20
603.844547
 42
0.000000
  0
VERTEX
  8
0
 10
295.104954
 20
564.189095
 42
0.000000
  0
VERTEX
  8
0
 10
292.451486
 20
557.884735
 42
0.016904
  0
VERTEX
  8
0
 10
291.083063
 20
554.299139
 42
0.040193
  0
VERTEX
  8
0
 10
290.376339
 20
551.536393
 42
0.041141
  0
VERTEX
  8
0
 10
290.129588
 20
548.735036
 42
0.018483
  0
VERTEX
  8
0
 10
290.245425
 20
545.040188
 42
0.008668
  0
VERTEX
  8
0
 10
290.471086
 20
542.411557
 42
0.010079
  0
VERTEX
  8
0
 10
290.779212
 20
539.921747
 42
0.009187
  0
VERTEX
  8
0
 10
291.120109
 20
537.831406
 42
0.057865
  0
VERTEX
  8
0
 10
291.434295
 20
536.799802
 42
-0.196572
  0
VERTEX
  8
0
 10
291.457230
 20
535.804608
 42
-0.130620
  0
VERTEX
  8
0
 10
290.780631
 20
534.866666
 42
-0.054928
  0
VERTEX
  8
0
 10
289.133158
 20
533.795846
 42
-0.009953
  0
VERTEX
  8
0
 10
285.837878
 20
532.217400
 42
0.057451
  0
VERTEX
  8
0
 10
276.595061
 20
526.657108
 42
0.023788
  0
VERTEX
  8
0
 10
265.458243
 20
517.201764
 42
0.022632
  0
VERTEX
  8
0
 10
254.069482
 20
505.551561
 42
0.023124
  0
VERTEX
  8
0
 10
243.866386
 20
493.000000
 42
0.035993
  0
VERTEX
  8
0
 10
239.674564
 20
486.378241
 42
0.021287
  0
VERTEX
  8
0
 10
235.605849
 20
477.951815
 42
0.020008
  0
VERTEX
  8
0
 10
231.955737
 20
468.463874
 42
0.019236
  0
VERTEX
  8
0
 10
229.022381
 20
458.590037
 42
0.033068
  0
VERTEX
  8
0
 10
227.505499
 20
450.448417
 42
0.033092
  0
VERTEX
  8
0
 10
227.075744
 20
442.179831
 42
0.030119
  0
VERTEX
  8
0
 10
227.741390
 20
433.255713
 42
0.019872
  0
VERTEX
  8
0
 10
229.527224
 20
423.120405
 42
0.015242
  0
VERTEX
  8
0
 10
231.276155
 20
416.114226
 42
0.023634
  0
VERTEX
  8
0
 10
233.250314
 20
410.203914
 42
0.017261
  0
VERTEX
  8
0
 10
236.192703
 20
403.324172
 42
0.004516
  0
VERTEX
  8
0
 10
241.390642
 20
392.500000
 42
0.010855
  0
VERTEX
  8
0
 10
248.617019
 20
378.566242
 42
0.024245
  0
VERTEX
  8
0
 10
254.839676
 20
368.385407
 42
0.020757
  0
VERTEX
  8
0
 10
262.590026
 20
357.945640
 42
0.006107
  0
VERTEX
  8
0
 10
275.324521
 20
342.589324
 42
-0.006866
  0
VERTEX
  8
0
 10
284.731903
 20
331.210052
 42
-0.086053
  0
VERTEX
  8
0
 10
287.425685
 20
326.341833
 42
-0.192402
  0
VERTEX
  8
0
 10
287.242226
 20
322.394034
 42
-0.060648
  0
VERTEX
  8
0
 10
284.107543
 20
317.255267
 42
-0.039731
  0
VERTEX
  8
0
 10
279.741884
 20
312.553173
 42
-0.048991
  0
VERTEX
  8
0
 10
274.963798
 20
308.957203
 42
-0.048253
  0
VERTEX
  8
0
 10
269.516003
 20
306.320066
 42
-0.036819
  0
VERTEX
  8
0
 10
263.146908
 20
304.483156
 42
0.012338
  0
VERTEX
  8
0
 10
256.196443
 20
302.842110
 42
0.024234
  0
VERTEX
  8
0
 10
250.778261
 20
301.136390
 42
0.029150
  0
VERTEX
  8
0
 10
246.275494
 20
299.170069
 42
0.031967
  0
VERTEX
  8
0
 10
242.174494
 20
296.745546
 42
0.040073
  0
VERTEX
  8
0
 10
238.109536
 20
293.472200
 42
0.081780
  0
VERTEX
  8
0
 10
235.638551
 20
290.218789
 42
0.087159
  0
VERTEX
  8
0
 10
234.433043
 20
286.487342
 42
0.050706
  0
VERTEX
  8
0
 10
234.257146
 20
281.771046
 42
0.009411
  0
VERTEX
  8
0
 10
234.443194
 20
279.531091
 42
0.013229
  0
VERTEX
  8
0
 10
234.699476
 20
277.542138
 42
0.009457
  0
VERTEX
  8
0
 10
234.985269
 20
275.911637
 42
0.149338
  0
VERTEX
  8
0
 10
235.246987
 20
275.419680
 42
0.243086
  0
VERTEX
  8
0
 10
236.960573
 20
274.873648
 42
0.010586
  0
VERTEX
  8
0
 10
243.328866
 20
276.095863
 42
0.015751
  0
VERTEX
  8
0
 10
249.498474
 20
277.620635
 42
0.098499
  0
VERTEX
  8
0
 10
252.382276
 20
279.086058
 42
-0.010952
  0
VERTEX
  8
0
 10
253.357408
 20
279.819103
 42
-0.014665
  0
VERTEX
  8
0
 10
254.274691
 20
280.437780
 42
-0.011796
  0
VERTEX
  8
0
 10
255.057212
 20
280.907341
 42
-0.129943
  0
VERTEX
  8
0
 10
255.407729
 20
281.000000
 42
-0.419888
  0
VERTEX
  8
0
 10
256.123762
 20
280.269988
 42
-0.062128
  0
VERTEX
  8
0
 10
255.795783
 20
277.998997
 42
-0.045747
  0
VERTEX
  8
0
 10
254.670059
 20
274.998748
 42
-0.036355
  0
VERTEX
  8
0
 10
252.940872
 20
272.000000
 42
0.010133
  0
VERTEX
  8
0
 10
251.567035
 20
269.882236
 42
0.005374
  0
VERTEX
  8
0
 10
249.946699
 20
267.206250
 42
0.005346
  0
VERTEX
  8
0
 10
248.347905
 20
264.433367
 42
0.008253
  0
VERTEX
  8
0
 10
247.031714
 20
262.000000
 42
-0.027345
  0
VERTEX
  8
0
 10
245.425089
 20
259.282866
 42
-0.009111
  0
VERTEX
  8
0
 10
242.788385
 20
255.485223
 42
-0.009038
  0
VERTEX
  8
0
 10
239.709354
 20
251.377151
 42
-0.010179
  0
VERTEX
  8
0
 10
236.600532
 20
247.545438
 42
0.014228
  0
VERTEX
  8
0
 10
231.060158
 20
240.602609
 42
0.040604
  0
VERTEX
  8
0
 10
227.759058
 20
235.382641
 42
0.041452
  0
VERTEX
  8
0
 10
225.381864
 20
229.758194
 42
0.015335
  0
VERTEX
  8
0
 10
222.950235
 20
221.500000
 42
0.022582
  0
VERTEX
  8
0
 10
221.599572
 20
215.179627
 42
0.029013
  0
VERTEX
  8
0
 10
220.962726
 20
209.270950
 42
0.013311
  0
VERTEX
  8
0
 10
220.765018
 20
200.577223
 42
0.001365
  0
VERTEX
  8
0
 10
220.900963
 20
180.014370
 42
0.003526
  0
VERTEX
  8
0
 10
221.292899
 20
156.106962
 42
0.035579
  0
VERTEX
  8
0
 10
222.233125
 20
146.194815
 42
0.071746
  0
VERTEX
  8
0
 10
224.443313
 20
139.269978
 42
0.036141
  0
VERTEX
  8
0
 10
229.045195
 20
131.314868
 42
-0.016670
  0
VERTEX
  8
0
 10
230.892928
 20
128.389577
 42
-0.034556
  0
VERTEX
  8
0
 10
232.093781
 20
125.971516
 42
-0.043452
  0
VERTEX
  8
0
 10
232.769795
 20
123.824259
 42
-0.054433
  0
VERTEX
  8
0
 10
232.997617
 20
121.750000
 42
-0.023128
  0
VERTEX
  8
0
 10
232.919519
 20
120.039021
 42
-0.068866
  0
VERTEX
  8
0
 10
232.653356
 20
118.899064
 42
-0.120468
  0
VERTEX
  8
0
 10
232.198127
 20
118.243091
 42
-0.183092
  0
VERTEX
  8
0
 10
231.556530
 20
118.000000
 42
0.225361
  0
VERTEX
  8
0
 10
229.619649
 20
117.080295
 42
0.010619
  0
VERTEX
  8
0
 10
225.055129
 20
111.234382
 42
0.012970
  0
VERTEX
  8
0
 10
220.828307
 20
105.260185
 42
0.148630
  0
VERTEX
  8
0
 10
220.000789
 20
102.534060
 42
0.102065
  0
VERTEX
  8
0
 10
220.744397
 20
98.936254
 42
0.025851
  0
VERTEX
  8
0
 10
223.402659
 20
93.556442
 42
0.027286
  0
VERTEX
  8
0
 10
226.791109
 20
88.213480
 42
0.052129
  0
VERTEX
  8
0
 10
230.153562
 20
84.409787
 42
0.035847
  0
VERTEX
  8
0
 10
237.311240
 20
78.726655
 42
0.005276
  0
VERTEX
  8
0
 10
252.703081
 20
68.446530
 42
0.005034
  0
VERTEX
  8
0
 10
268.326198
 20
58.471487
 42
0.039966
  0
VERTEX
  8
0
 10
275.930381
 20
54.529302
 42
0.026843
  0
VERTEX
  8
0
 10
287.057504
 20
50.534098
 42
0.017908
  0
VERTEX
  8
0
 10
300.163086
 20
47.114567
 42
0.014472
  0
VERTEX
  8
0
 10
316.209534
 20
44.020550
 42
0.007401
  0
VERTEX
  8
0
 10
336.500000
 20
41.021642
 42
-0.003401
  0
VERTEX
  8
0
 10
343.046907
 20
40.107462
 42
-0.002466
  0
VERTEX
  8
0
 10
350.325000
 20
39.003960
 42
-0.002491
  0
VERTEX
  8
0
 10
357.225565
 20
37.887608
 42
-0.005440
  0
VERTEX
  8
0
 10
362.500000
 20
36.948245
 42
0.023432
  0
VERTEX
  8
0
 10
375.906723
 20
35.055190
 42
0.019347
  0
VERTEX
  8
0
 10
390.320303
 20
34.265545
 42
0.016926
  0
VERTEX
  8
0
 10
406.549978
 20
34.554600
 42
0.010596
  0
VERTEX
  8
0
 10
425.500000
 20
35.937561
 42
0.003636
  0
VERTEX
  8
0
 10
438.261114
 20
37.234896
 42
0.013355
  0
VERTEX
  8
0
 10
446.304393
 20
38.329810
 42
0.018968
  0
VERTEX
  8
0
 10
452.713199
 20
39.628515
 42
0.015218
  0
VERTEX
  8
0
 10
459.500000
 20
41.494422
 42
-0.003171
  0
VERTEX
  8
0
 10
464.224255
 20
42.916535
 42
-0.002546
  0
VERTEX
  8
0
 10
469.325000
 20
44.388593
 42
-0.002573
  0
VERTEX
  8
0
 10
474.054201
 20
45.701132
 42
-0.006560
  0
VERTEX
  8
0
 10
477.500000
 20
46.590022
 42
0.011628
  0
VERTEX
  8
0
 10
480.468200
 20
47.387880
 42
0.009555
  0
VERTEX
  8
0
 10
483.598695
 20
48.373292
 42
0.009679
  0
VERTEX
  8
0
 10
486.440740
 20
49.389595
 42
0.025125
  0
VERTEX
  8
0
 10
488.431727
 20
50.262102
 42
0.024618
  0
VERTEX
  8
0
 10
496.839111
 20
54.992330
 42
0.007874
  0
VERTEX
  8
0
 10
508.857901
 20
62.823078
 42
0.007200
  0
VERTEX
  8
0
 10
520.458934
 20
70.889979
 42
0.036570
  0
VERTEX
  8
0
 10
526.500000
 20
75.928039
 42
-0.023919
  0
VERTEX
  8
0
 10
529.632284
 20
78.677430
 42
-0.014801
  0
VERTEX
  8
0
 10
533.552630
 20
81.614384
 42
-0.014121
  0
VERTEX
  8
0
 10
537.912133
 20
84.502611
 42
-0.014512
  0
VERTEX
  8
0
 10
542.388764
 20
87.112684
 42
0.012697
  0
VERTEX
  8
0
 10
547.451775
 20
90.040064
 42
0.023164
  0
VERTEX
  8
0
 10
551.401893
 20
92.719002
 42
0.025725
  0
VERTEX
  8
0
 10
554.798273
 20
95.543327
 42
0.020942
  0
VERTEX
  8
0
 10
558.138764
 20
98.894624
 42
0.006215
  0
VERTEX
  8
0
 10
560.384804
 20
101.407052
 42
0.009294
  0
VERTEX
  8
0
 10
562.278262
 20
103.662094
 42
0.004878
  0
VERTEX
  8
0
 10
563.812894
 20
105.598687
 42
0.166606
  0
VERTEX
  8
0
 10
564.000000
 20
106.144624
 42
0.277976
  0
VERTEX
  8
0
 10
563.801214
 20
106.474554
 42
0.052176
  0
VERTEX
  8
0
 10
563.118750
 20
106.748733
 42
0.042502
  0
VERTEX
  8
0
 10
562.149527
 20
106.937952
 42
0.026969
  0
VERTEX
  8
0
 10
561.000000
 20
107.000000
 42
-0.017186
  0
VERTEX
  8
0
 10
559.850000
 20
107.039540
 42
-0.027994
  0
VERTEX
  8
0
 10
558.881250
 20
107.160986
 42
-0.027191
  0
VERTEX
  8
0
 10
558.159760
 20
107.333770
 42
-0.331770
  0
VERTEX
  8
0
 10
558.000000
 20
107.548037
 42
-0.130309
  0
VERTEX
  8
0
 10
558.099480
 20
107.923264
 42
-0.002714
  0
VERTEX
  8
0
 10
559.073666
 20
109.610039
 42
-0.006141
  0
VERTEX
  8
0
 10
560.254344
 20
111.573226
 42
-0.004074
  0
VERTEX
  8
0
 10
561.655035
 20
113.798037
 42
0.033390
  0
VERTEX
  8
0
 10
564.969427
 20
119.818017
 42
0.019844
  0
VERTEX
  8
0
 10
568.135202
 20
127.372268
 42
0.017774
  0
VERTEX
  8
0
 10
571.067276
 20
136.172602
 42
0.013513
  0
VERTEX
  8
0
 10
573.671478
 20
146.000000
 42
0.016405
  0
VERTEX
  8
0
 10
575.027895
 20
152.718727
 42
0.020445
  0
VERTEX
  8
0
 10
575.825079
 20
159.036522
 42
0.012910
  0
VERTEX
  8
0
 10
576.313604
 20
167.333152
 42
0.002709
  0
VERTEX
  8
0
 10
576.714639
 20
181.871248
 42
0.005891
  0
VERTEX
  8
0
 10
576.901475
 20
199.873498
 42
0.022913
  0
VERTEX
  8
0
 10
576.375504
 20
211.003504
 42
0.035576
  0
VERTEX
  8
0
 10
575.006865
 20
219.265630
 42
0.038878
  0
VERTEX
  8
0
 10
572.503716
 20
227.000000
 42
-0.023300
  0
VERTEX
  8
0
 10
571.451765
 20
229.935232
 42
-0.006745
  0
VERTEX
  8
0
 10
570.102704
 20
234.556250
 42
-0.006767
  0
VERTEX
  8
0
 10
568.721580
 20
239.810940
 42
-0.007174
  0
VERTEX
  8
0
 10
567.511291
 20
245.000000
 42
0.002683
  0
VERTEX
  8
0
 10
566.407242
 20
249.933465
 42
0.003544
  0
VERTEX
  8
0
 10
565.345406
 20
254.415625
 42
0.002561
  0
VERTEX
  8
0
 10
564.410273
 20
258.158598
 42
0.034461
  0
VERTEX
  8
0
 10
563.967470
 20
259.500000
 42
-0.027597
  0
VERTEX
  8
0
 10
563.284810
 20
261.476531
 42
-0.012656
  0
VERTEX
  8
0
 10
562.604517
 20
264.118002
 42
-0.010970
  0
VERTEX
  8
0
 10
561.942081
 20
267.306948
 42
-0.007230
  0
VERTEX
  8
0
 10
561.314156
 20
271.000000
 42
0.028649
  0
VERTEX
  8
0
 10
561.001225
 20
272.459301
 42
0.024673
  0
VERTEX
  8
0
 10
560.510882
 20
273.949643
 42
0.025429
  0
VERTEX
  8
0
 10
559.929279
 20
275.258898
 42
0.063050
  0
VERTEX
  8
0
 10
559.342331
 20
276.126445
 42
-0.021564
  0
VERTEX
  8
0
 10
558.586304
 20
277.065894
 42
-0.182365
  0
VERTEX
  8
0
 10
558.442134
 20
277.579324
 42
-0.244603
  0
VERTEX
  8
0
 10
558.692426
 20
277.972575
 42
-0.039470
  0
VERTEX
  8
0
 10
559.538616
 20
278.376445
 42
-0.062427
  0
VERTEX
  8
0
 10
560.524682
 20
278.619545
 42
-0.009616
  0
VERTEX
  8
0
 10
562.535625
 20
278.816831
 42
-0.010606
  0
VERTEX
  8
0
 10
564.929793
 20
278.954288
 42
-0.009035
  0
VERTEX
  8
0
 10
567.459343
 20
279.000000
 42
0.014373
  0
VERTEX
  8
0
 10
570.394270
 20
279.084383
 42
0.034732
  0
VERTEX
  8
0
 10
572.546276
 20
279.358997
 42
0.048255
  0
VERTEX
  8
0
 10
574.073755
 20
279.819468
 42
0.122823
  0
VERTEX
  8
0
 10
575.000000
 20
280.500000
 42
-0.129871
  0
VERTEX
  8
0
 10
576.584995
 20
281.631005
 42
-0.110310
  0
VERTEX
  8
0
 10
578.626060
 20
281.922272
 42
-0.100282
  0
VERTEX
  8
0
 10
580.758201
 20
281.314055
 42
-0.089602
  0
VERTEX
  8
0
 10
582.583824
 20
279.907376
 42
0.048060
  0
VERTEX
  8
0
 10
584.958760
 20
277.742386
 42
0.070135
  0
VERTEX
  8
0
 10
587.435673
 20
276.379254
 42
0.054313
  0
VERTEX
  8
0
 10
590.641233
 20
275.545217
 42
0.018118
  0
VERTEX
  8
0
 10
595.466233
 20
275.013343
 42
-0.010376
  0
VERTEX
  8
0
 10
599.749767
 20
274.608168
 42
-0.072832
  0
VERTEX
  8
0
 10
601.770520
 20
274.069594
 42
-0.107823
  0
VERTEX
  8
0
 10
603.195360
 20
273.050901
 42
-0.034890
  0
VERTEX
  8
0
 10
604.805350
 20
271.000000
 42
-0.029600
  0
VERTEX
  8
0
 10
606.040703
 20
268.923147
 42
-0.070562
  0
VERTEX
  8
0
 10
606.632173
 20
267.232436
 42
-0.063142
  0
VERTEX
  8
0
 10
606.764526
 20
265.331734
 42
-0.020060
  0
VERTEX
  8
0
 10
606.489816
 20
262.500000
 42
0.012486
  0
VERTEX
  8
0
 10
605.774608
 20
256.132514
 42
0.031318
  0
VERTEX
  8
0
 10
605.661246
 20
251.462154
 42
0.041946
  0
VERTEX
  8
0
 10
606.059777
 20
248.216799
 42
0.202271
  0
VERTEX
  8
0
 10
607.095223
 20
246.720012
 42
0.157161
  0
VERTEX
  8
0
 10
609.395846
 20
246.121085
 42
0.086406
  0
VERTEX
  8
0
 10
612.257123
 20
246.789458
 42
0.062919
  0
VERTEX
  8
0
 10
615.545308
 20
248.705193
 42
0.033214
  0
VERTEX
  8
0
 10
619.103240
 20
251.823305
 42
0.041917
  0
VERTEX
  8
0
 10
622.412423
 20
255.744182
 42
0.063976
  0
VERTEX
  8
0
 10
624.502748
 20
259.668508
 42
0.059376
  0
VERTEX
  8
0
 10
625.628155
 20
264.207517
 42
0.030865
  0
VERTEX
  8
0
 10
625.994423
 20
270.039901
 42
0.091056
  0
VERTEX
  8
0
 10
623.104841
 20
285.864985
 42
0.098153
  0
VERTEX
  8
0
 10
614.805271
 20
299.165097
 42
0.076633
  0
VERTEX
  8
0
 10
600.171898
 20
310.622238
 42
0.034895
  0
VERTEX
  8
0
 10
578.149721
 20
321.030947
 42
-0.012948
  0
VERTEX
  8
0
 10
561.914314
 20
327.850407
 42
-0.043964
  0
VERTEX
  8
0
 10
551.909584
 20
333.465383
 42
-0.066368
  0
VERTEX
  8
0
 10
545.409629
 20
339.303868
 42
-0.071715
  0
VERTEX
  8
0
 10
540.865557
 20
346.500000
 42
-0.078495
  0
VERTEX
  8
0
 10
538.628537
 20
354.796294
 42
-0.078850
  0
VERTEX
  8
0
 10
539.063046
 20
363.364712
 42
-0.075017
  0
VERTEX
  8
0
 10
542.190900
 20
371.730497
 42
-0.061902
  0
VERTEX
  8
0
 10
547.816196
 20
379.426450
 42
0.081056
  0
VERTEX
  8
0
 10
559.535916
 20
396.814134
 42
0.080245
  0
VERTEX
  8
0
 10
565.171915
 20
417.085858
 42
0.072633
  0
VERTEX
  8
0
 10
564.399158
 20
439.816857
 42
0.051264
  0
VERTEX
  8
0
 10
557.290270
 20
464.406210
 42
0.004928
  0
VERTEX
  8
0
 10
555.747012
 20
468.121184
 42
0.005095
  0
VERTEX
  8
0
 10
554.147491
 20
471.763730
 42
0.004928
  0
VERTEX
  8
0
 10
552.699331
 20
474.889820
 42
0.021754
  0
VERTEX
  8
0
 10
551.749324
 20
476.683083
 42
-0.009383
  0
VERTEX
  8
0
 10
550.585857
 20
478.753796
 42
-0.129091
  0
VERTEX
  8
0
 10
550.385854
 20
479.584082
 42
-0.231089
  0
VERTEX
  8
0
 10
550.695308
 20
480.186428
 42
-0.037670
  0
VERTEX
  8
0
 10
551.835522
 20
480.911974
 42
0.127311
  0
VERTEX
  8
0
 10
553.791813
 20
482.715018
 42
0.085821
  0
VERTEX
  8
0
 10
554.984924
 20
485.524000
 42
0.066306
  0
VERTEX
  8
0
 10
555.351900
 20
489.256050
 42
0.037437
  0
VERTEX
  8
0
 10
554.855295
 20
493.783870
 42
-0.032979
  0
VERTEX
  8
0
 10
554.441780
 20
497.267556
 42
-0.007282
  0
VERTEX
  8
0
 10
554.215244
 20
503.281571
 42
-0.007045
  0
VERTEX
  8
0
 10
554.148819
 20
510.665135
 42
-0.004905
  0
VERTEX
  8
0
 10
554.273053
 20
519.000000
 42
-0.006197
  0
VERTEX
  8
0
 10
554.686961
 20
530.148976
 42
-0.012760
  0
VERTEX
  8
0
 10
555.341258
 20
538.854153
 42
-0.012063
  0
VERTEX
  8
0
 10
556.464401
 20
547.816648
 42
-0.004959
  0
VERTEX
  8
0
 10
558.400174
 20
559.911060
 42
-0.003403
  0
VERTEX
  8
0
 10
559.885861
 20
568.292707
 42
-0.004769
  0
VERTEX
  8
0
 10
561.335054
 20
575.756499
 42
-0.002905
  0
VERTEX
  8
0
 10
562.649065
 20
582.009579
 42
-0.062372
  0
VERTEX
  8
0
 10
563.272628
 20
583.786384
 42
-0.083504
  0
VERTEX
  8
0
 10
564.106101
 20
584.932587
 42
-0.023782
  0
VERTEX
  8
0
 10
565.755085
 20
586.402059
 42
-0.023242
  0
VERTEX
  8
0
 10
567.804548
 20
587.908524
 42
-0.022727
  0
VERTEX
  8
0
 10
570.000000
 20
589.230355
 42
0.010196
  0
VERTEX
  8
0
 10
583.037712
 20
596.641523
 42
0.028206
  0
VERTEX
  8
0
 10
591.784329
 20
602.544598
 42
0.035371
  0
VERTEX
  8
0
 10
598.633225
 20
608.561106
 42
0.026130
  0
VERTEX
  8
0
 10
605.340452
 20
616.100569
 42
0.045073
  0
VERTEX
  8
0
 10
615.241893
 20
631.058996
 42
0.036453
  0
VERTEX
  8
0
 10
623.127781
 20
648.634576
 42
0.036887
  0
VERTEX
  8
0
 10
628.282707
 20
666.894600
 42
0.050394
  0
VERTEX
  8
0
 10
630.000000
 20
683.889938
 42
0.021685
  0
VERTEX
  8
0
 10
629.601538
 20
693.073147
 42
0.011234
  0
VERTEX
  8
0
 10
628.349844
 20
704.490716
 42
0.011209
  0
VERTEX
  8
0
 10
626.558215
 20
716.026771
 42
0.018663
  0
VERTEX
  8
0
 10
624.471814
 20
725.635587
 42
0.017376
  0
VERTEX
  8
0
 10
623.143433
 20
730.154845
 42
0.009744
  0
VERTEX
  8
0
 10
621.233205
 20
735.552876
 42
0.009695
  0
VERTEX
  8
0
 10
619.078041
 20
740.964423
 42
0.014955
  0
VERTEX
  8
0
 10
616.986527
 20
745.545466
 42
0.010896
  0
VERTEX
  8
0
 10
614.209930
 20
750.878910
 42
0.028451
  0
VERTEX
  8
0
 10
611.919625
 20
754.542822
 42
0.034935
  0
VERTEX
  8
0
 10
609.528984
 20
757.466688
 42
0.025848
  0
VERTEX
  8
0
 10
606.511464
 20
760.357007
 42
-0.019758
  0
VERTEX
  8
0
 10
604.114048
 20
762.598044
 42
-0.012185
  0
VERTEX
  8
0
 10
601.467316
 20
765.409544
 42
-0.012214
  0
VERTEX
  8
0
 10
598.982958
 20
768.320906
 42
-0.021365
  0
VERTEX
  8
0
 10
597.092122
 20
770.864344
 42
0.044772
  0
VERTEX
  8
0
 10
590.753513
 20
778.606691
 42
0.023613
  0
VERTEX
  8
0
 10
581.639769
 20
787.064041
 42
0.023402
  0
VERTEX
  8
0
 10
571.494822
 20
794.841262
 42
0.035198
  0
VERTEX
  8
0
 10
561.919325
 20
800.540627
 42
0.012608
  0
VERTEX
  8
0
 10
552.816571
 20
804.840507
 42
0.011651
  0
VERTEX
  8
0
 10
543.267753
 20
808.796713
 42
0.012149
  0
VERTEX
  8
0
 10
534.284646
 20
812.026893
 42
0.024124
  0
VERTEX
  8
0
 10
527.000000
 20
814.063793
 42
0.000003
  0
VERTEX
  8
0
 10
523.592681
 20
814.841522
 42
0.000003
  0
VERTEX
  8
0
 10
520.384297
 20
815.573804
 42
0.000003
  0
VERTEX
  8
0
 10
517.680062
 20
816.190984
 42
0.000021
  0
VERTEX
  8
0
 10
516.414630
 20
816.479726
 42
-0.082194
  0
VERTEX
  8
0
 10
515.156898
 20
816.994244
 42
-0.006865
  0
VERTEX
  8
0
 10
512.176290
 20
818.888202
 42
-0.009002
  0
VERTEX
  8
0
 10
508.672581
 20
821.273891
 42
-0.006829
  0
VERTEX
  8
0
 10
504.914630
 20
824.010735
 42
0.042903
  0
VERTEX
  8
0
 10
487.589401
 20
834.809155
 42
0.050217
  0
VERTEX
  8
0
 10
469.545426
 20
841.833843
 42
0.042757
  0
VERTEX
  8
0
 10
448.195596
 20
845.839107
 42
0.020844
  0
VERTEX
  8
0
 10
420.500000
 20
847.455651
 42
0.002200
  0
VERTEX
  8
0
 10
412.165509
 20
847.557501
 42
0.002820
  0
VERTEX
  8
0
 10
404.493750
 20
847.574233
 42
0.002174
  0
VERTEX
  8
0
 10
398.064963
 20
847.524052
 42
0.024078
  0
SEQEND
  0
POLYLINE
  8
0
 66
1
 70
1
  0
VERTEX
  8
0
 10
451.822106
 20
844.499994
 42
-0.021876
  0
VERTEX
  8
0
 10
467.333498
 20
841.385462
 42
-0.035529
  0
VERTEX
  8
0
 10
480.116108
 20
837.249513
 42
-0.037181
  0
VERTEX
  8
0
 10
491.769334
 20
831.500801
 42
-0.027052
  0
VERTEX
  8
0
 10
503.809552
 20
823.496551
 42
0.007612
  0
VERTEX
  8
0
 10
510.287841
 20
818.816920
 42
0.041564
  0
VERTEX
  8
0
 10
514.020427
 20
816.643604
 42
0.045834
  0
VERTEX
  8
0
 10
517.906477
 20
815.213697
 42
0.010480
  0
VERTEX
  8
0
 10
524.715412
 20
813.547300
 42
-0.020840
  0
VERTEX
  8
0
 10
533.061062
 20
811.320616
 42
-0.014058
  0
VERTEX
  8
0
 10
542.385053
 20
808.121472
 42
-0.013452
  0
VERTEX
  8
0
 10
552.048946
 20
804.199382
 42
-0.013663
  0
VERTEX
  8
0
 10
561.437124
 20
799.782281
 42
-0.035921
  0
VERTEX
  8
0
 10
570.742544
 20
794.218185
 42
-0.023026
  0
VERTEX
  8
0
 10
580.716010
 20
786.529363
 42
-0.023170
  0
VERTEX
  8
0
 10
589.757669
 20
778.120753
 42
-0.042642
  0
VERTEX
  8
0
 10
596.149913
 20
770.377241
 42
0.016331
  0
VERTEX
  8
0
 10
598.397711
 20
767.342544
 42
0.011945
  0
VERTEX
  8
0
 10
601.080088
 20
764.119306
 42
0.012094
  0
VERTEX
  8
0
 10
603.770792
 20
761.185148
 42
0.025987
  0
VERTEX
  8
0
 10
606.010382
 20
759.088257
 42
-0.096226
  0
VERTEX
  8
0
 10
614.416485
 20
748.658970
 42
-0.042939
  0
VERTEX
  8
0
 10
621.324760
 20
732.351592
 42
-0.037691
  0
VERTEX
  8
0
 10
626.268004
 20
712.111298
 42
-0.029040
  0
VERTEX
  8
0
 10
628.676771
 20
689.500000
 42
-0.008908
  0
VERTEX
  8
0
 10
628.881777
 20
682.725044
 42
-0.021149
  0
VERTEX
  8
0
 10
628.731270
 20
677.685577
 42
-0.021921
  0
VERTEX
  8
0
 10
628.160345
 20
672.785202
 42
-0.010258
  0
VERTEX
  8
0
 10
627.014463
 20
666.500000
 42
-0.043639
  0
VERTEX
  8
0
 10
620.003587
 20
642.839751
 42
-0.058115
  0
VERTEX
  8
0
 10
609.431710
 20
623.085929
 42
-0.060877
  0
VERTEX
  8
0
 10
595.049862
 20
606.986158
 42
-0.054925
  0
VERTEX
  8
0
 10
576.735125
 20
594.175973
 42
0.005280
  0
VERTEX
  8
0
 10
572.198824
 20
591.631553
 42
0.007017
  0
VERTEX
  8
0
 10
568.132338
 20
589.217312
 42
0.005140
  0
VERTEX
  8
0
 10
564.786539
 20
587.119281
 42
0.068119
  0
VERTEX
  8
0
 10
563.681022
 20
586.175973
 42
0.099036
  0
VERTEX
  8
0
 10
562.229250
 20
583.703579
 42
0.026047
  0
VERTEX
  8
0
 10
560.947827
 20
579.271329
 42
0.013648
  0
VERTEX
  8
0
 10
559.419331
 20
571.810150
 42
0.002134
  0
VERTEX
  8
0
 10
556.869421
 20
557.000000
 42
0.005304
  0
VERTEX
  8
0
 10
555.034345
 20
545.303685
 42
0.015856
  0
VERTEX
  8
0
 10
554.118797
 20
537.258102
 42
0.015278
  0
VERTEX
  8
0
 10
553.697549
 20
529.012727
 42
0.004642
  0
VERTEX
  8
0
 10
553.557321
 20
516.500000
 42
0.002180
  0
VERTEX
  8
0
 10
553.577875
 20
508.068552
 42
0.002583
  0
VERTEX
  8
0
 10
553.673196
 20
500.101401
 42
0.002249
  0
VERTEX
  8
0
 10
553.818589
 20
493.379446
 42
0.016436
  0
VERTEX
  8
0
 10
554.008476
 20
490.164344
 42
-0.014853
  0
VERTEX
  8
0
 10
554.207350
 20
486.968952
 42
-0.082376
  0
VERTEX
  8
0
 10
553.981762
 20
485.268951
 42
-0.107542
  0
VERTEX
  8
0
 10
553.242982
 20
483.949957
 42
-0.033866
  0
VERTEX
  8
0
 10
551.623968
 20
482.353902
 42
0.000000
  0
VERTEX
  8
0
 10
548.747936
 20
479.879115
 42
0.000000
  0
VERTEX
  8
0
 10
551.292224
 20
475.189558
 42
-0.021652
  0
VERTEX
  8
0
 10
554.308976
 20
469.004568
 42
-0.012988
  0
VERTEX
  8
0
 10
557.375316
 20
461.427308
 42
-0.012908
  0
VERTEX
  8
0
 10
560.085615
 20
453.584849
 42
-0.019078
  0
VERTEX
  8
0
 10
562.018395
 20
446.567877
 42
-0.046954
  0
VERTEX
  8
0
 10
564.687804
 20
427.174764
 42
-0.068169
  0
VERTEX
  8
0
 10
563.082435
 20
409.995736
 42
-0.070869
  0
VERTEX
  8
0
 10
557.008491
 20
394.373087
 42
-0.055798
  0
VERTEX
  8
0
 10
546.392299
 20
379.621075
 42
0.059550
  0
VERTEX
  8
0
 10
541.167719
 20
372.245404
 42
0.071225
  0
VERTEX
  8
0
 10
538.209596
 20
364.269140
 42
0.072092
  0
VERTEX
  8
0
 10
537.628718
 20
355.863619
 42
0.063087
  0
VERTEX
  8
0
 10
539.388161
 20
347.225942
 42
0.099313
  0
VERTEX
  8
0
 10
543.902083
 20
339.431568
 42
0.063485
  0
VERTEX
  8
0
 10
551.789809
 20
332.498284
 42
0.043960
  0
VERTEX
  8
0
 10
563.949559
 20
325.753584
 42
0.016553
  0
VERTEX
  8
0
 10
582.000000
 20
318.429530
 42
-0.038618
  0
VERTEX
  8
0
 10
595.490277
 20
312.249925
 42
-0.042414
  0
VERTEX
  8
0
 10
607.426189
 20
304.231736
 42
-0.046464
  0
VERTEX
  8
0
 10
616.692357
 20
295.261581
 42
-0.084435
  0
VERTEX
  8
0
 10
622.099811
 20
286.246659
 42
-0.056556
  0
VERTEX
  8
0
 10
623.912046
 20
279.402232
 42
-0.033759
  0
VERTEX
  8
0
 10
624.572071
 20
270.995477
 42
-0.033711
  0
VERTEX
  8
0
 10
624.117543
 20
262.964937
 42
-0.089530
  0
VERTEX
  8
0
 10
622.411934
 20
257.500000
 42
-0.062779
  0
VERTEX
  8
0
 10
619.799913
 20
253.734758
 42
-0.045065
  0
VERTEX
  8
0
 10
616.045420
 20
250.245244
 42
-0.046039
  0
VERTEX
  8
0
 10
612.115903
 20
247.744509
 42
-0.148663
  0
VERTEX
  8
0
 10
609.103686
 20
247.197696
 42
-0.058006
  0
VERTEX
  8
0
 10
607.621799
 20
247.546970
 42
-0.198885
  0
VERTEX
  8
0
 10
606.906060
 20
248.200502
 42
-0.104951
  0
VERTEX
  8
0
 10
606.613341
 20
249.456240
 42
-0.010941
  0
VERTEX
  8
0
 10
606.619430
 20
252.500000
 42
-0.010660
  0
VERTEX
  8
0
 10
606.719823
 20
254.719561
 42
-0.007064
  0
VERTEX
  8
0
 10
606.925306
 20
257.261945
 42
-0.007111
  0
VERTEX
  8
0
 10
607.195061
 20
259.727009
 42
-0.013720
  0
VERTEX
  8
0
 10
607.492998
 20
261.689599
 42
0.036549
  0
VERTEX
  8
0
 10
607.875360
 20
265.316706
 42
0.069581
  0
VERTEX
  8
0
 10
607.562771
 20
268.227674
 42
0.075348
  0
VERTEX
  8
0
 10
606.491749
 20
270.787073
 42
0.050210
  0
VERTEX
  8
0
 10
604.571882
 20
273.327937
 42
0.044334
  0
VERTEX
  8
0
 10
602.985031
 20
274.761750
 42
0.086226
  0
VERTEX
  8
0
 10
601.470653
 20
275.538908
 42
0.061572
  0
VERTEX
  8
0
 10
599.461120
 20
275.902769
 42
0.014036
  0
VERTEX
  8
0
 10
595.998089
 20
276.000000
 42
-0.035302
  0
VERTEX
  8
0
 10
591.434787
 20
276.322587
 42
-0.056717
  0
VERTEX
  8
0
 10
587.663664
 20
277.303452
 42
-0.069667
  0
VERTEX
  8
0
 10
584.813185
 20
278.886247
 42
-0.108778
  0
VERTEX
  8
0
 10
582.994461
 20
281.010350
 42
0.161564
  0
VERTEX
  8
0
 10
581.564689
 20
282.366666
 42
0.091181
  0
VERTEX
  8
0
 10
579.229118
 20
282.980032
 42
0.089829
  0
VERTEX
  8
0
 10
576.795093
 20
282.725445
 42
0.149775
  0
VERTEX
  8
0
 10
575.086523
 20
281.604254
 42
-0.142604
  0
VERTEX
  8
0
 10
574.149566
 20
280.970410
 42
-0.029987
  0
VERTEX
  8
0
 10
572.213798
 20
280.472992
 42
-0.024890
  0
VERTEX
  8
0
 10
569.536423
 20
280.090793
 42
-0.011661
  0
VERTEX
  8
0
 10
566.043609
 20
279.850451
 42
0.006879
  0
VERTEX
  8
0
 10
562.978125
 20
279.668952
 42
0.010164
  0
VERTEX
  8
0
 10
560.295738
 20
279.418165
 42
0.005776
  0
VERTEX
  8
0
 10
558.063204
 20
279.137404
 42
0.163623
  0
VERTEX
  8
0
 10
557.548307
 20
278.881641
 42
0.223702
  0
VERTEX
  8
0
 10
557.400052
 20
278.469414
 42
0.035845
  0
VERTEX
  8
0
 10
557.545777
 20
277.602697
 42
0.033779
  0
VERTEX
  8
0
 10
557.882762
 20
276.535161
 42
0.023772
  0
VERTEX
  8
0
 10
558.397347
 20
275.385443
 42
-0.032498
  0
VERTEX
  8
0
 10
559.065915
 20
273.818984
 42
-0.009107
  0
VERTEX
  8
0
 10
559.904138
 20
271.291349
 42
-0.009144
  0
VERTEX
  8
0
 10
560.749635
 20
268.391588
 42
-0.009507
  0
VERTEX
  8
0
 10
561.476926
 20
265.500000
 42
0.002055
  0
VERTEX
  8
0
 10
565.170487
 20
249.831596
 42
0.005180
  0
VERTEX
  8
0
 10
568.024766
 20
238.462778
 42
0.006025
  0
VERTEX
  8
0
 10
570.282308
 20
230.254274
 42
0.034257
  0
VERTEX
  8
0
 10
571.830070
 20
226.000000
 42
-0.050939
  0
VERTEX
  8
0
 10
574.178464
 20
218.808265
 42
-0.035422
  0
VERTEX
  8
0
 10
575.397242
 20
210.344766
 42
-0.021842
  0
VERTEX
  8
0
 10
575.737239
 20
198.430642
 42
-0.005483
  0
VERTEX
  8
0
 10
575.229715
 20
179.000000
 42
-0.002319
  0
VERTEX
  8
0
 10
574.567054
 20
163.124625
 42
-0.012478
  0
VERTEX
  8
0
 10
573.951047
 20
154.500853
 42
-0.021433
  0
VERTEX
  8
0
 10
573.074536
 20
148.241368
 42
-0.019720
  0
VERTEX
  8
0
 10
571.647303
 20
141.901174
 42
-0.008990
  0
VERTEX
  8
0
 10
569.109797
 20
133.037739
 42
-0.019218
  0
VERTEX
  8
0
 10
566.767690
 20
126.315116
 42
-0.022706
  0
VERTEX
  8
0
 10
564.198031
 20
120.546643
 42
-0.019561
  0
VERTEX
  8
0
 10
560.994905
 20
114.733191
 42
0.006541
  0
VERTEX
  8
0
 10
559.464490
 20
112.118997
 42
0.009204
  0
VERTEX
  8
0
 10
558.173503
 20
109.745404
 42
0.005986
  0
VERTEX
  8
0
 10
557.157618
 20
107.734380
 42
0.114444
  0
VERTEX
  8
0
 10
557.000000
 20
107.054774
 42
0.217995
  0
VERTEX
  8
0
 10
557.184738
 20
106.651189
 42
0.078410
  0
VERTEX
  8
0
 10
557.734375
 20
106.309840
 42
0.059620
  0
VERTEX
  8
0
 10
558.542768
 20
106.077250
 42
0.040285
  0
VERTEX
  8
0
 10
559.500000
 20
106.000000
 42
-0.033678
  0
VERTEX
  8
0
 10
560.457602
 20
105.935426
 42
-0.051538
  0
VERTEX
  8
0
 10
561.265625
 20
105.739703
 42
-0.066903
  0
VERTEX
  8
0
 10
561.822320
 20
105.453948
 42
-0.245499
  0
VERTEX
  8
0
 10
562.000000
 20
105.113884
 42
-0.170690
  0
VERTEX
  8
0
 10
561.804699
 20
104.558458
 42
-0.005782
  0
VERTEX
  8
0
 10
560.310938
 20
102.740465
 42
-0.010309
  0
VERTEX
  8
0
 10
558.453329
 20
100.622434
 42
-0.006941
  0
VERTEX
  8
0
 10
556.250000
 20
98.278494
 42
-0.022286
  0
VERTEX
  8
0
 10
553.035199
 20
95.236015
 42
-0.024154
  0
VERTEX
  8
0
 10
549.644539
 20
92.577218
 42
-0.022058
  0
VERTEX
  8
0
 10
545.750921
 20
90.067246
 42
-0.013861
  0
VERTEX
  8
0
 10
541.000000
 20
87.467070
 42
0.015086
  0
VERTEX
  8
0
 10
536.359958
 20
84.912792
 42
0.018527
  0
VERTEX
  8
0
 10
532.197788
 20
82.242418
 42
0.019353
  0
VERTEX
  8
0
 10
528.403439
 20
79.380705
 42
0.019751
  0
VERTEX
  8
0
 10
524.868352
 20
76.252657
 42
-0.035932
  0
VERTEX
  8
0
 10
516.063117
 20
68.954964
 42
-0.014440
  0
VERTEX
  8
0
 10
503.076760
 20
60.234648
 42
-0.013515
  0
VERTEX
  8
0
 10
489.973544
 20
52.461310
 42
-0.056025
  0
VERTEX
  8
0
 10
481.500000
 20
48.913942
 42
0.000478
  0
VERTEX
  8
0
 10
477.934701
 20
47.867482
 42
0.000161
  0
VERTEX
  8
0
 10
472.737500
 20
46.334823
 42
0.000160
  0
VERTEX
  8
0
 10
466.990427
 20
44.635993
 42
0.000184
  0
VERTEX
  8
0
 10
461.500000
 20
43.008923
 42
-0.011573
  0
VERTEX
  8
0
 10
453.572065
 20
40.854664
 42
-0.018927
  0
VERTEX
  8
0
 10
446.754852
 20
39.441998
 42
-0.014124
  0
VERTEX
  8
0
 10
438.588676
 20
38.305914
 42
-0.003748
  0
VERTEX
  8
0
 10
425.500000
 20
36.959707
 42
-0.010622
  0
VERTEX
  8
0
 10
406.706653
 20
35.571096
 42
-0.016675
  0
VERTEX
  8
0
 10
390.514988
 20
35.260735
 42
-0.019056
  0
VERTEX
  8
0
 10
376.168796
 20
36.011551
 42
-0.024016
  0
VERTEX
  8
0
 10
363.000000
 20
37.846080
 42
0.006057
  0
VERTEX
  8
0
 10
357.483890
 20
38.817555
 42
0.001768
  0
VERTEX
  8
0
 10
348.975000
 20
40.179181
 42
0.001776
  0
VERTEX
  8
0
 10
339.384336
 20
41.644259
 42
0.001902
  0
VERTEX
  8
0
 10
330.000000
 20
43.007235
 42
-0.007487
  0
VERTEX
  8
0
 10
312.821295
 20
45.698496
 42
-0.013608
  0
VERTEX
  8
0
 10
298.887012
 20
48.488124
 42
-0.016501
  0
VERTEX
  8
0
 10
287.394588
 20
51.518303
 42
-0.025926
  0
VERTEX
  8
0
 10
277.778208
 20
54.948559
 42
-0.038798
  0
VERTEX
  8
0
 10
268.790709
 20
59.536945
 42
-0.006816
  0
VERTEX
  8
0
 10
252.735116
 20
69.675254
 42
-0.006398
  0
VERTEX
  8
0
 10
236.946669
 20
80.238548
 42
-0.045769
  0
VERTEX
  8
0
 10
229.893778
 20
86.106222
 42
-0.044502
  0
VERTEX
  8
0
 10
226.779549
 20
89.830296
 42
-0.029093
  0
VERTEX
  8
0
 10
223.854464
 20
94.608321
 42
-0.028583
  0
VERTEX
  8
0
 10
221.660956
 20
99.340867
 42
-0.093384
  0
VERTEX
  8
0
 10
221.009769
 20
102.715204
 42
-0.088047
  0
VERTEX
  8
0
 10
221.195856
 20
103.791328
 42
-0.030443
  0
VERTEX
  8
0
 10
221.823590
 20
105.244600
 42
-0.029139
  0
VERTEX
  8
0
 10
222.725391
 20
106.794840
 42
-0.029932
  0
VERTEX
  8
0
 10
223.793942
 20
108.215204
 42
0.008966
  0
VERTEX
  8
0
 10
224.990093
 20
109.673701
 42
0.006446
  0
VERTEX
  8
0
 10
226.275091
 20
111.342904
 42
0.006512
  0
VERTEX
  8
0
 10
227.457042
 20
112.963457
 42
0.013957
  0
VERTEX
  8
0
 10
228.316995
 20
114.250000
 42
-0.046831
  0
VERTEX
  8
0
 10
229.124913
 20
115.302030
 42
-0.046014
  0
VERTEX
  8
0
 10
230.118908
 20
116.192187
 42
-0.049847
  0
VERTEX
  8
0
 10
231.140996
 20
116.803146
 42
-0.110232
  0
VERTEX
  8
0
 10
232.023053
 20
117.000000
 42
0.102223
  0
VERTEX
  8
0
 10
233.037081
 20
117.209503
 42
0.185099
  0
VERTEX
  8
0
 10
233.634978
 20
117.793375
 42
0.092779
  0
VERTEX
  8
0
 10
233.928578
 20
118.961795
 42
0.015290
  0
VERTEX
  8
0
 10
234.000000
 20
121.296893
 42
0.045827
  0
VERTEX
  8
0
 10
233.772758
 20
123.771009
 42
0.049685
  0
VERTEX
  8
0
 10
233.098799
 20
126.093155
 42
0.036938
  0
VERTEX
  8
0
 10
231.800674
 20
128.742482
 42
0.012925
  0
VERTEX
  8
0
 10
229.562957
 20
132.349308
 42
-0.035674
  0
VERTEX
  8
0
 10
225.295175
 20
139.982215
 42
-0.066848
  0
VERTEX
  8
0
 10
223.175098
 20
146.716141
 42
-0.034704
  0
VERTEX
  8
0
 10
222.198070
 20
156.248968
 42
-0.003909
  0
VERTEX
  8
0
 10
221.655555
 20
178.000000
 42
-0.001664
  0
VERTEX
  8
0
 10
221.395816
 20
196.833774
 42
-0.014946
  0
VERTEX
  8
0
 10
221.556251
 20
205.090455
 42
-0.027797
  0
VERTEX
  8
0
 10
222.207866
 20
211.279573
 42
-0.014039
  0
VERTEX
  8
0
 10
223.678643
 20
218.987275
 42
-0.016467
  0
VERTEX
  8
0
 10
226.033827
 20
228.227880
 42
-0.043216
  0
VERTEX
  8
0
 10
228.498888
 20
234.604729
 42
-0.046039
  0
VERTEX
  8
0
 10
231.926657
 20
240.230081
 42
-0.020891
  0
VERTEX
  8
0
 10
237.360313
 20
246.935005
 42
0.012919
  0
VERTEX
  8
0
 10
240.095861
 20
250.202692
 42
0.010171
  0
VERTEX
  8
0
 10
242.892465
 20
253.875278
 42
0.010310
  0
VERTEX
  8
0
 10
245.352461
 20
257.396145
 42
0.024888
  0
VERTEX
  8
0
 10
246.983713
 20
260.120822
 42
-0.007795
  0
VERTEX
  8
0
 10
248.409021
 20
262.697385
 42
-0.004743
  0
VERTEX
  8
0
 10
250.169424
 20
265.699455
 42
-0.004752
  0
VERTEX
  8
0
 10
251.972027
 20
268.643903
 42
-0.008373
  0
VERTEX
  8
0
 10
253.524432
 20
271.036306
 42
0.037360
  0
VERTEX
  8
0
 10
255.840565
 20
275.103605
 42
0.072460
  0
VERTEX
  8
0
 10
256.937459
 20
278.670990
 42
0.136430
  0
VERTEX
  8
0
 10
256.658111
 20
281.036461
 42
0.304429
  0
VERTEX
  8
0
 10
255.222241
 20
282.000000
 42
0.084045
  0
VERTEX
  8
0
 10
254.425024
 20
281.865042
 42
0.042765
  0
VERTEX
  8
0
 10
253.494513
 20
281.448527
 42
0.040897
  0
VERTEX
  8
0
 10
252.583416
 20
280.841003
 42
0.048250
  0
VERTEX
  8
0
 10
251.837042
 20
280.122647
 42
-0.096395
  0
VERTEX
  8
0
 10
250.743578
 20
279.255451
 42
-0.032137
  0
VERTEX
  8
0
 10
248.864891
 20
278.429843
 42
-0.027402
  0
VERTEX
  8
0
 10
246.410297
 20
277.683945
 42
-0.016953
  0
VERTEX
  8
0
 10
243.458708
 20
277.066193
 42
-0.018624
  0
VERTEX
  8
0
 10
238.327582
 20
276.368361
 42
-0.184511
  0
VERTEX
  8
0
 10
236.266794
 20
276.932031
 42
-0.211709
  0
VERTEX
  8
0
 10
235.261164
 20
278.681777
 42
-0.025292
  0
VERTEX
  8
0
 10
235.015313
 20
283.247119
 42
-0.135793
  0
VERTEX
  8
0
 10
236.744596
 20
289.576411
 42
-0.096161
  0
VERTEX
  8
0
 10
241.673095
 20
295.101626
 42
-0.071552
  0
VERTEX
  8
0
 10
249.774858
 20
299.610307
 42
-0.037538
  0
VERTEX
  8
0
 10
260.849265
 20
302.914134
 42
0.008649
  0
VERTEX
  8
0
 10
264.528368
 20
303.784038
 42
0.009052
  0
VERTEX
  8
0
 10
268.119389
 20
304.768536
 42
0.008776
  0
VERTEX
  8
0
 10
271.187255
 20
305.728427
 42
0.039135
  0
VERTEX
  8
0
 10
272.924051
 20
306.460725
 42
0.056724
  0
VERTEX
  8
0
 10
278.315699
 20
310.075234
 42
0.036846
  0
VERTEX
  8
0
 10
283.667644
 20
315.343954
 42
0.035789
  0
VERTEX
  8
0
 10
287.821320
 20
320.830284
 42
0.145126
  0
VERTEX
  8
0
 10
289.000000
 20
324.805648
 42
0.115783
  0
VERTEX
  8
0
 10
288.420919
 20
327.272834
 42
0.038516
  0
VERTEX
  8
0
 10
286.505755
 20
330.481821
 42
0.020067
  0
VERTEX
  8
0
 10
282.820338
 20
335.277843
 42
0.003487
  0
VERTEX
  8
0
 10
275.439461
 20
344.000000
 42
-0.007166
  0
VERTEX
  8
0
 10
263.791235
 20
357.972172
 42
-0.019073
  0
VERTEX
  8
0
 10
256.011546
 20
368.367505
 42
-0.022094
  0
VERTEX
  8
0
 10
249.714330
 20
378.408515
 42
-0.012963
  0
VERTEX
  8
0
 10
243.037443
 20
390.925201
 42
-0.014283
  0
VERTEX
  8
0
 10
235.723588
 20
406.641865
 42
-0.033923
  0
VERTEX
  8
0
 10
231.435441
 20
418.796505
 42
-0.040043
  0
VERTEX
  8
0
 10
229.240882
 20
430.127881
 42
-0.028818
  0
VERTEX
  8
0
 10
228.549788
 20
443.000000
 42
-0.007481
  0
VERTEX
  8
0
 10
228.691408
 20
450.474663
 42
-0.028706
  0
VERTEX
  8
0
 10
229.115418
 20
455.105751
 42
-0.032016
  0
VERTEX
  8
0
 10
230.044167
 20
459.405979
 42
-0.010977
  0
VERTEX
  8
0
 10
231.920407
 20
465.500000
 42
-0.025240
  0
VERTEX
  8
0
 10
236.613027
 20
477.559471
 42
-0.030240
  0
VERTEX
  8
0
 10
242.259831
 20
488.352496
 42
-0.029418
  0
VERTEX
  8
0
 10
249.306714
 20
498.624041
 42
-0.021815
  0
VERTEX
  8
0
 10
258.216652
 20
509.122149
 42
-0.023838
  0
VERTEX
  8
0
 10
264.829744
 20
515.608946
 42
-0.015677
  0
VERTEX
  8
0
 10
273.008164
 20
522.452088
 42
-0.015266
  0
VERTEX
  8
0
 10
281.041662
 20
528.369448
 42
-0.048820
  0
VERTEX
  8
0
 10
286.853690
 20
531.595846
 42
0.008140
  0
VERTEX
  8
0
 10
290.648358
 20
533.315471
 42
0.078101
  0
VERTEX
  8
0
 10
292.110896
 20
534.311012
 42
0.181051
  0
VERTEX
  8
0
 10
292.636439
 20
535.374323
 42
0.086471
  0
VERTEX
  8
0
 10
292.525619
 20
536.917393
 42
-0.028597
  0
VERTEX
  8
0
 10
291.440681
 20
542.650520
 42
-0.043624
  0
VERTEX
  8
0
 10
291.224860
 20
547.706960
 42
-0.046220
  0
VERTEX
  8
0
 10
291.885692
 20
552.503477
 42
-0.037837
  0
VERTEX
  8
0
 10
293.440356
 20
557.443009
 42
0.000000
  0
VERTEX
  8
0
 10
296.105303
 20
564.104328
 42
0.000000
  0
VERTEX
  8
0
 10
295.802652
 20
603.802164
 42
0.001076
  0
VERTEX
  8
0
 10
295.574820
 20
627.108762
 42
0.009049
  0
VERTEX
  8
0
 10
295.259201
 20
637.617799
 42
0.018709
  0
VERTEX
  8
0
 10
294.738572
 20
643.689713
 42
0.085008
  0
VERTEX
  8
0
 10
293.718632
 20
647.075990
 42
0.065841
  0
VERTEX
  8
0
 10
292.422281
 20
648.996895
 42
0.013443
  0
VERTEX
  8
0
 10
289.615524
 20
651.997490
 42
0.013500
  0
VERTEX
  8
0
 10
286.041734
 20
655.427569
 42
0.010529
  0
VERTEX
  8
0
 10
281.983856
 20
658.963884
 42
-0.009639
  0
VERTEX
  8
0
 10
277.887208
 20
662.521170
 42
-0.008840
  0
VERTEX
  8
0
 10
273.808836
 20
666.335848
 42
-0.008875
  0
VERTEX
  8
0
 10
270.290825
 20
669.868198
 42
-0.028507
  0
VERTEX
  8
0
 10
268.131126
 20
672.387895
 42
-0.015733
  0
VERTEX
  8
0
 10
262.735133
 20
679.943784
 42
-0.011165
  0
VERTEX
  8
0
 10
257.146642
 20
688.732803
 42
-0.009900
  0
VERTEX
  8
0
 10
252.384388
 20
696.969183
 42
-0.052798
  0
VERTEX
  8
0
 10
250.368811
 20
701.750664
 42
-0.026948
  0
VERTEX
  8
0
 10
248.581925
 20
709.066681
 42
-0.014200
  0
VERTEX
  8
0
 10
247.116558
 20
718.307195
 42
-0.013657
  0
VERTEX
  8
0
 10
246.097959
 20
728.302165
 42
-0.015139
  0
VERTEX
  8
0
 10
245.671237
 20
738.000000
 42
-0.007200
  0
VERTEX
  8
0
 10
245.676552
 20
745.581653
 42
-0.029946
  0
VERTEX
  8
0
 10
246.018902
 20
750.139324
 42
-0.033322
  0
VERTEX
  8
0
 10
246.886878
 20
754.389131
 42
-0.010410
  0
VERTEX
  8
0
 10
248.741231
 20
760.628080
 42
-0.029043
  0
VERTEX
  8
0
 10
251.931029
 20
768.906199
 42
-0.042793
  0
VERTEX
  8
0
 10
255.741682
 20
775.696422
 42
-0.037814
  0
VERTEX
  8
0
 10
261.010353
 20
782.312267
 42
-0.017229
  0
VERTEX
  8
0
 10
268.809374
 20
790.155529
 42
-0.039642
  0
VERTEX
  8
0
 10
278.547208
 20
797.942437
 42
-0.033953
  0
VERTEX
  8
0
 10
289.895490
 20
804.552152
 42
-0.033372
  0
VERTEX
  8
0
 10
302.252027
 20
809.672016
 42
-0.034882
  0
VERTEX
  8
0
 10
315.000000
 20
813.013575
 42
0.032011
  0
VERTEX
  8
0
 10
318.076824
 20
813.801259
 42
0.045567
  0
VERTEX
  8
0
 10
320.668125
 20
814.914280
 42
0.037414
  0
VERTEX
  8
0
 10
323.362064
 20
816.646940
 42
0.014280
  0
VERTEX
  8
0
 10
326.847369
 20
819.436155
 42
-0.034735
  0
VERTEX
  8
0
 10
333.637680
 20
824.429091
 42
-0.014110
  0
VERTEX
  8
0
 10
343.508402
 20
830.297285
 42
-0.014228
  0
VERTEX
  8
0
 10
353.902009
 20
835.704302
 42
-0.027959
  0
VERTEX
  8
0
 10
362.500000
 20
839.292326
 42
-0.016587
  0
VERTEX
  8
0
 10
369.150151
 20
841.395198
 42
-0.012670
  0
VERTEX
  8
0
 10
376.549478
 20
843.266884
 42
-0.012307
  0
VERTEX
  8
0
 10
384.297129
 20
844.819722
 42
-0.012857
  0
VERTEX
  8
0
 10
392.000000
 20
845.964061
 42
-0.029739
  0
VERTEX
  8
0
 10
402.928910
 20
846.645916
 42
-0.006830
  0
VERTEX
  8
0
 10
421.422027
 20
846.446000
 42
-0.007076
  0
VERTEX
  8
0
 10
440.013507
 20
845.727643
 42
-0.025415
  0
SEQEND
  0
ENDSEC
  0
EOF
