<?xml version="1.0" encoding="UTF-8" standalone="no"?>
<!DOCTYPE svg PUBLIC "-//W3C//DTD SVG 20010904//EN"
              "http://www.w3.org/TR/2001/REC-SVG-20010904/DTD/svg10.dtd">

<svg xmlns="http://www.w3.org/2000/svg"
     width="2.34in" height="2.88333in"
     viewBox="0 0 702 865">
  <path id="Seleção"
        fill="none" stroke="black" stroke-width="1"
        d="M 293.00,330.00
           C 290.93,325.63 289.73,320.88 290.10,316.00
             290.64,308.67 294.69,308.39 295.92,297.00
             295.92,297.00 295.92,240.00 295.92,240.00
             295.99,234.36 295.47,221.90 292.86,217.18
             290.98,213.77 286.05,210.13 283.00,207.59
             276.56,202.22 271.62,198.36 266.43,191.58
             266.43,191.58 251.94,169.28 251.94,169.28
             247.77,159.77 245.13,140.49 245.00,130.00
             244.84,116.34 244.39,117.07 248.28,104.00
             248.28,104.00 250.75,96.00 250.75,96.00
             252.77,91.54 257.29,85.86 260.55,82.17
             272.41,68.72 279.00,65.03 295.00,57.36
             298.77,55.55 304.89,53.41 309.00,52.62
             314.22,51.62 317.43,52.32 321.95,49.04
             321.95,49.04 332.00,40.38 332.00,40.38
             332.00,40.38 352.00,29.31 352.00,29.31
             371.61,20.46 392.58,17.08 414.00,17.75
             414.00,17.75 424.00,17.75 424.00,17.75
             443.62,18.09 463.55,20.69 482.00,27.71
             496.71,33.31 508.87,45.81 515.00,48.83
             515.00,48.83 532.00,52.43 532.00,52.43
             539.17,54.45 559.65,63.27 566.00,66.95
             573.18,71.12 588.42,83.64 593.67,90.00
             593.67,90.00 599.78,99.00 599.78,99.00
             604.94,106.01 608.49,105.13 612.65,112.00
             621.91,127.29 626.29,144.44 628.16,162.00
             628.70,167.00 629.44,171.95 629.15,177.00
             629.15,177.00 629.15,184.00 629.15,184.00
             629.36,193.63 628.96,190.08 627.41,199.00
             623.21,223.33 610.69,246.47 591.58,262.31
             587.72,265.50 576.86,271.46 572.00,274.14
             569.48,275.53 565.32,277.11 563.59,279.27
             561.25,282.22 559.82,294.71 559.00,299.00
             556.94,309.80 553.05,334.62 553.02,345.00
             553.02,345.00 553.02,356.00 553.02,356.00
             553.02,356.00 553.02,364.00 553.02,364.00
             554.13,370.99 558.77,381.91 549.00,385.00
             553.23,390.92 553.43,392.74 556.17,399.00
             565.29,419.86 569.31,445.47 559.83,467.00
             558.09,470.94 553.30,478.70 550.53,481.96
             550.53,481.96 543.63,489.09 543.63,489.09
             538.50,495.78 536.63,505.83 538.60,514.00
             541.97,528.01 552.68,533.91 565.00,539.28
             583.84,547.49 591.66,547.21 609.08,561.16
             612.95,564.25 616.92,567.73 619.48,572.04
             625.49,582.18 628.84,599.64 621.75,609.96
             619.36,613.44 611.93,620.07 607.31,618.31
             604.52,617.24 605.06,613.30 605.28,611.00
             606.94,603.81 609.92,600.25 605.28,593.10
             600.87,586.97 598.73,590.37 593.00,589.80
             587.70,589.28 583.44,586.70 581.00,582.00
             581.00,582.00 577.00,582.00 577.00,582.00
             572.65,588.18 569.76,584.81 564.00,585.16
             561.78,585.29 559.18,586.38 557.00,587.00
             557.00,587.00 560.00,590.00 560.00,590.00
             559.79,593.56 560.62,598.29 563.00,601.00
             563.00,601.00 562.00,604.00 562.00,604.00
             565.16,606.54 564.05,608.35 564.97,612.00
             564.97,612.00 570.20,633.96 570.20,633.96
             570.20,633.96 573.16,640.17 573.16,640.17
             574.57,643.72 576.63,655.94 576.91,660.00
             576.91,660.00 576.00,678.00 576.00,678.00
             576.00,678.00 576.00,699.00 576.00,699.00
             575.98,710.29 571.04,729.38 566.98,740.00
             563.41,749.36 560.98,750.29 557.00,758.00
             557.00,758.00 564.00,758.00 564.00,758.00
             559.79,764.28 554.48,770.51 548.00,774.53
             548.00,774.53 531.00,783.39 531.00,783.39
             531.00,783.39 519.41,794.96 519.41,794.96
             519.41,794.96 489.00,814.22 489.00,814.22
             481.72,817.69 476.43,817.73 469.00,820.02
             469.00,820.02 449.00,826.34 449.00,826.34
             449.00,826.34 399.00,831.00 399.00,831.00
             374.36,831.28 365.40,827.15 343.00,824.28
             318.44,821.15 291.28,818.26 269.00,806.74
             269.00,806.74 246.00,791.67 246.00,791.67
             238.56,786.71 228.91,780.85 224.36,773.00
             222.44,769.69 219.34,762.90 221.21,759.21
             221.21,759.21 225.88,753.79 225.88,753.79
             228.70,749.83 228.34,747.06 234.00,747.00
             233.88,735.30 230.48,736.53 225.90,727.91
             222.18,720.93 221.04,715.85 221.00,708.00
             221.00,708.00 222.00,685.00 222.00,685.00
             222.00,685.00 220.32,661.00 220.32,661.00
             220.81,654.64 223.33,644.44 224.88,638.00
             228.09,624.76 235.20,620.89 242.77,610.99
             246.64,605.91 246.78,604.19 249.49,599.17
             252.71,593.21 258.18,590.29 256.00,583.00
             256.00,583.00 254.00,583.00 254.00,583.00
             250.49,589.56 247.45,586.62 236.00,590.00
             235.18,587.38 234.13,584.78 234.10,582.00
             234.01,574.92 239.34,570.17 245.00,566.88
             258.82,558.82 266.06,564.51 278.96,553.98
             282.39,551.19 288.90,544.13 288.79,539.44
             288.71,536.43 280.49,527.68 278.28,525.09
             270.35,515.78 256.50,500.00 250.58,490.00
             250.58,490.00 234.46,458.00 234.46,458.00
             232.14,452.06 227.52,432.43 227.09,426.00
             226.12,411.67 234.26,386.84 242.35,375.00
             246.87,368.39 256.20,356.49 261.96,351.18
             261.96,351.18 280.00,336.00 280.00,336.00
             280.00,336.00 293.00,330.00 293.00,330.00 Z
           M 353.00,822.00
           C 353.00,822.00 352.00,822.00 352.00,822.00
             352.00,822.00 353.00,823.00 353.00,823.00
             353.00,823.00 353.00,822.00 353.00,822.00 Z" />
</svg>
